<?xml version="1.0" encoding="utf-8"?>
<!-- Generator: Adobe Illustrator 27.3.1, SVG Export Plug-In . SVG Version: 6.00 Build 0)  -->
<svg version="1.1" xmlns="http://www.w3.org/2000/svg" xmlns:xlink="http://www.w3.org/1999/xlink" x="0px" y="0px"
	 viewBox="0 0 792 792" style="enable-background:new 0 0 792 792;" xml:space="preserve">
<style type="text/css">
	.st0{display:none;}
	.st1{display:inline;fill:#30B566;stroke:#231F20;stroke-miterlimit:10;}
	.st2{fill:#FFFFFF;}
	.st3{fill:#FFFFFF;stroke:#FFFFFF;stroke-miterlimit:10;}
</style>
<g id="Layer_5" class="st0">
	<rect class="st1" width="792" height="792"/>
</g>
<g id="Layer_4">
</g>
<g id="Layer_1">
</g>
<g id="Layer_2">
	<g>
		<g>
			<path class="st2" d="M115.97,479.48c-6.58,6.37-10.69,15.23-10.69,24.89c0,9.66,4.11,18.41,10.69,24.78
				c6.58,6.37,15.62,10.34,25.61,10.34c10.57,0,20.09-4.43,26.78-11.37l17.39,17.85c-0.12,0.23-0.35,0.45-0.47,0.57
				c-11.16,10.8-26.67,17.5-43.7,17.5c-17.03,0-32.42-6.71-43.58-17.5c-11.16-10.8-18.09-25.69-18.09-42.17
				c0-32.96,27.61-59.67,61.67-59.67c17.03,0,32.54,6.59,43.7,17.39c0.12,0.23,0.35,0.45,0.47,0.57l-17.39,17.96
				c-0.35-0.34-0.7-0.8-1.06-1.14c-6.58-6.36-15.74-10.23-25.73-10.23C131.59,469.25,122.55,473.11,115.97,479.48z"/>
			<path class="st2" d="M238.01,483.23h16.33v21.14h-16.33c-5.52,0-10.46,2.16-14.1,5.68c-3.64,3.41-5.87,8.3-5.87,13.64v40.35
				h-21.73v-40.35c0-7.05,1.88-13.64,5.05-19.32c3.88-6.82,9.63-12.5,16.68-16.14C224.03,485.05,230.85,483.23,238.01,483.23z"/>
			<path class="st2" d="M345.73,518.35c0.24,1.82,0.35,3.52,0.35,5.34c0,1.7-0.12,3.52-0.35,5.23h-60.61
				c0.94,3.18,2.7,6.14,5.05,8.41c3.64,3.52,8.58,5.68,14.1,5.68c6.58,0,12.33-3.07,15.98-7.84l16.45,13.98
				c-0.94,1.02-1.88,2.05-2.94,3.07c-7.52,7.27-17.97,11.82-29.49,11.82c-11.51,0-21.97-4.55-29.49-11.82
				c-6.34-6.14-10.69-14.21-11.86-23.3c-0.24-1.71-0.35-3.52-0.35-5.23c0-1.82,0.12-3.52,0.35-5.34
				c2.7-19.78,20.21-35.12,41.35-35.12c11.51,0,21.97,4.55,29.49,11.94C340.09,501.3,344.44,509.37,345.73,518.35z M323.53,518.35
				c-0.94-3.18-2.7-6.02-5.17-8.3c-3.52-3.52-8.58-5.68-14.1-5.68c-5.52,0-10.46,2.16-14.1,5.68c-2.35,2.27-4.11,5.12-5.05,8.3
				H323.53z"/>
			<path class="st2" d="M436.65,523.69c0,0.57-0.12,1.14-0.12,1.7h0.12v38.65H414.8v-24.55h-3.64c0,21.03-9.04,24.55-16.33,24.55
				c-23.02,0-41.7-18.07-41.7-40.35c0-22.28,18.68-40.47,41.7-40.47C417.85,483.23,436.65,501.41,436.65,523.69z M394.83,504.37
				c-11.04,0-19.97,8.64-19.97,19.32c0,10.68,8.93,19.32,19.97,19.32c11.04,0,19.97-8.64,19.97-19.32
				C414.8,513.01,405.87,504.37,394.83,504.37z"/>
			<path class="st2" d="M467.77,483.23h25.49v21.14h-25.49h-14.45v3.52c7.99,0,14.45,6.25,14.45,13.98v1.82
				c0,5.34,2.23,10.12,5.87,13.64c3.64,3.52,8.58,5.68,14.1,5.68h5.52v21.03h-5.52c-7.17,0-13.98-1.82-19.97-4.89
				c-7.05-3.75-12.8-9.32-16.68-16.14c-3.17-5.8-5.05-12.39-5.05-19.32v-19.32v-21.14v-10.68l21.73-10.34V483.23z"/>
			<path class="st2" d="M534.14,460.49c0,8.64-7.28,15.8-16.33,15.8c-9.05,0-16.33-7.16-16.33-15.8c0-8.75,7.28-15.8,16.33-15.8
				C526.85,444.69,534.14,451.74,534.14,460.49z M506.88,493.8l21.85-10.57v80.82h-21.85V493.8z"/>
			<path class="st2" d="M601.33,483.23h22.55l-22.55,80.82h-39.94l-22.55-80.82h22.55l19.97,63.31L601.33,483.23z"/>
			<path class="st2" d="M711.74,518.35c0.24,1.82,0.35,3.52,0.35,5.34c0,1.7-0.12,3.52-0.35,5.23h-60.61
				c0.94,3.18,2.7,6.14,5.05,8.41c3.64,3.52,8.58,5.68,14.1,5.68c6.58,0,12.33-3.07,15.98-7.84l16.45,13.98
				c-0.94,1.02-1.88,2.05-2.94,3.07c-7.52,7.27-17.97,11.82-29.49,11.82c-11.51,0-21.97-4.55-29.49-11.82
				c-6.34-6.14-10.69-14.21-11.86-23.3c-0.24-1.71-0.35-3.52-0.35-5.23c0-1.82,0.12-3.52,0.35-5.34
				c2.7-19.78,20.21-35.12,41.35-35.12c11.51,0,21.97,4.55,29.49,11.94C706.1,501.3,710.45,509.37,711.74,518.35z M689.54,518.35
				c-0.94-3.18-2.7-6.02-5.17-8.3c-3.52-3.52-8.58-5.68-14.1-5.68c-5.52,0-10.46,2.16-14.1,5.68c-2.35,2.27-4.11,5.12-5.05,8.3
				H689.54z"/>
		</g>
		<g>
			<path class="st2" d="M306.57,574.96h41.25v17.23h-41.25c-4.47,0-8.06,3.59-8.06,7.98c0,2.23,0.88,4.23,2.39,5.67
				c1.44,1.44,3.43,2.39,5.67,2.39h15.96c7.02,0,13.32,2.79,17.87,7.34c2.79,2.79,4.87,6.14,6.14,9.89c0.8,2.47,1.28,5.19,1.28,7.98
				c0,13.96-11.33,25.29-25.29,25.29h-41.25V641.5h41.25c4.47,0,8.06-3.59,8.06-8.06c0-2.15-0.88-4.15-2.39-5.66
				c-1.44-1.44-3.43-2.31-5.66-2.31h-15.96c-7.02,0-13.32-2.79-17.87-7.42c-2.79-2.71-4.87-6.06-6.14-9.81
				c-0.8-2.55-1.28-5.27-1.28-8.06C281.27,586.21,292.6,574.96,306.57,574.96z"/>
			<path class="st2" d="M410.93,630.41c0,15.64-12.77,28.32-28.4,28.32c-15.64,0-28.32-12.69-28.32-28.32
				c0-15.64,12.69-28.4,28.32-28.4C398.17,602.01,410.93,614.77,410.93,630.41z M382.53,616.85c-7.5,0-13.56,6.06-13.56,13.56
				c0,7.5,6.06,13.56,13.56,13.56c7.5,0,13.56-6.06,13.56-13.56C396.09,622.91,390.03,616.85,382.53,616.85z"/>
			<path class="st2" d="M455.94,602.01h14.84v29.6c0,15-12.13,27.13-27.13,27.13s-27.13-12.13-27.13-27.13v-29.6h14.76v29.6
				c0,6.78,5.59,12.37,12.37,12.37s12.29-5.59,12.29-12.37V602.01z"/>
			<path class="st2" d="M477.17,582.3l14.76-7.34v83.78h-14.76V582.3z"/>
		</g>
		<g>
			<path class="st2" d="M180.46,690.99v20.99h-2.11v-20.99H180.46z"/>
			<path class="st2" d="M197.71,697.23c1.18,1.2,1.77,2.96,1.77,5.28v9.47h-2.05v-9.32c0-1.77-0.45-3.12-1.34-4.06
				c-0.89-0.94-2.11-1.41-3.66-1.41c-1.63,0-2.92,0.52-3.89,1.56c-0.96,1.04-1.44,2.58-1.44,4.6v8.64h-2.11v-16.26h2.11v3.99
				c0.42-1.39,1.17-2.45,2.26-3.19c1.09-0.73,2.34-1.1,3.75-1.1C195,695.43,196.53,696.03,197.71,697.23z"/>
			<path class="st2" d="M213.06,696.92c1.07,0.93,1.73,2.19,1.96,3.78h-1.99c-0.12-1.05-0.55-1.92-1.3-2.61
				c-0.74-0.68-1.74-1.03-2.99-1.03c-1.07,0-1.91,0.26-2.52,0.79s-0.91,1.23-0.91,2.1c0,0.65,0.19,1.18,0.58,1.58
				c0.39,0.4,0.87,0.7,1.44,0.91s1.35,0.42,2.32,0.64c1.19,0.28,2.15,0.56,2.87,0.85c0.72,0.29,1.34,0.74,1.86,1.35
				c0.52,0.62,0.77,1.45,0.77,2.5c0,1.29-0.48,2.35-1.44,3.17c-0.96,0.82-2.24,1.24-3.83,1.24c-1.87,0-3.39-0.46-4.58-1.38
				c-1.19-0.92-1.9-2.19-2.11-3.8h2.02c0.12,1.07,0.59,1.95,1.4,2.62c0.81,0.68,1.92,1.01,3.3,1.01c1.03,0,1.84-0.27,2.41-0.8
				c0.58-0.54,0.86-1.23,0.86-2.08c0-0.7-0.2-1.25-0.6-1.67c-0.4-0.42-0.89-0.73-1.47-0.94c-0.59-0.21-1.38-0.43-2.4-0.67
				c-1.17-0.28-2.11-0.56-2.81-0.83c-0.7-0.28-1.31-0.71-1.8-1.29c-0.5-0.59-0.74-1.39-0.74-2.4c0-1.33,0.49-2.4,1.46-3.22
				c0.97-0.81,2.29-1.22,3.96-1.22C210.57,695.52,211.99,695.99,213.06,696.92z"/>
			<path class="st2" d="M231.63,696.52c1.14,0.67,2.03,1.63,2.68,2.89c0.65,1.26,0.97,2.75,0.97,4.45c0,1.69-0.32,3.16-0.97,4.42
				c-0.65,1.26-1.54,2.23-2.69,2.9c-1.15,0.68-2.46,1.01-3.93,1.01c-1.67,0-3.08-0.43-4.23-1.28c-1.15-0.85-1.95-1.98-2.38-3.39
				v12.15h-2.08v-23.94h2.08v4.47c0.44-1.41,1.23-2.54,2.38-3.39c1.15-0.85,2.56-1.28,4.23-1.28
				C229.17,695.52,230.48,695.85,231.63,696.52z M224,698.17c-0.92,0.54-1.64,1.3-2.16,2.28s-0.77,2.12-0.77,3.41
				c0,1.29,0.26,2.43,0.77,3.41s1.24,1.74,2.16,2.28c0.92,0.54,1.96,0.8,3.11,0.8c1.85,0,3.32-0.58,4.41-1.74
				c1.09-1.16,1.64-2.74,1.64-4.75c0-2-0.55-3.59-1.64-4.75c-1.09-1.16-2.56-1.74-4.41-1.74C225.96,697.37,224.93,697.64,224,698.17
				z"/>
			<path class="st2" d="M238.98,689.86c0.29-0.26,0.66-0.39,1.12-0.39c0.46,0,0.82,0.13,1.1,0.39c0.28,0.26,0.42,0.61,0.42,1.04
				c0,0.42-0.14,0.75-0.42,1.01c-0.28,0.26-0.64,0.39-1.1,0.39c-0.46,0-0.83-0.13-1.12-0.39c-0.29-0.26-0.43-0.6-0.43-1.01
				C238.55,690.47,238.69,690.12,238.98,689.86z M241.14,695.73v16.26h-2.11v-16.26H241.14z"/>
			<path class="st2" d="M250.07,696.38c1.05-0.63,2.33-0.95,3.84-0.95v2.26h-0.68c-1.57,0-2.87,0.42-3.9,1.27
				c-1.03,0.84-1.55,2.22-1.55,4.12v8.9h-2.11v-16.26h2.11v3.36C248.26,697.92,249.02,697.02,250.07,696.38z"/>
			<path class="st2" d="M267.46,709.37c0.99-0.73,1.59-1.73,1.79-2.98h2.2c-0.3,1.73-1.12,3.13-2.47,4.2
				c-1.35,1.07-3.06,1.61-5.12,1.61c-1.55,0-2.92-0.33-4.12-1c-1.2-0.67-2.14-1.63-2.81-2.89c-0.68-1.26-1.01-2.74-1.01-4.45
				c0-1.71,0.34-3.19,1.01-4.45c0.67-1.26,1.61-2.22,2.81-2.89c1.2-0.66,2.58-1,4.12-1c1.59,0,2.96,0.33,4.12,1
				c1.16,0.67,2.04,1.55,2.65,2.66c0.61,1.11,0.91,2.32,0.91,3.63c0,0.56-0.04,1.06-0.12,1.52h-13.46c0.02,1.37,0.3,2.52,0.85,3.44
				c0.55,0.92,1.26,1.6,2.13,2.04c0.87,0.44,1.82,0.66,2.83,0.66C265.24,710.47,266.47,710.1,267.46,709.37z M260.97,697.87
				c-0.87,0.44-1.58,1.11-2.13,2.01c-0.55,0.9-0.84,2.03-0.88,3.38h11.49c0.08-1.33-0.14-2.45-0.65-3.36
				c-0.52-0.91-1.21-1.59-2.08-2.03c-0.87-0.44-1.83-0.65-2.86-0.65C262.81,697.22,261.84,697.44,260.97,697.87z"/>
			<path class="st2" d="M286.36,696.8c1.16,0.85,1.95,1.99,2.37,3.39v-10.24h2.08v22.03h-2.08v-4.47c-0.42,1.41-1.21,2.54-2.37,3.39
				c-1.16,0.85-2.57,1.28-4.21,1.28c-1.47,0-2.78-0.34-3.95-1.01c-1.16-0.68-2.07-1.64-2.71-2.9c-0.65-1.26-0.97-2.73-0.97-4.42
				c0-1.71,0.32-3.19,0.97-4.45c0.64-1.26,1.54-2.22,2.69-2.89c1.15-0.66,2.47-1,3.96-1C283.79,695.52,285.19,695.95,286.36,696.8z
				 M278.28,699.11c-1.1,1.16-1.65,2.75-1.65,4.75c0,2.01,0.55,3.59,1.65,4.75c1.1,1.16,2.57,1.74,4.39,1.74
				c1.15,0,2.19-0.27,3.11-0.8c0.92-0.54,1.65-1.3,2.17-2.28c0.52-0.98,0.79-2.12,0.79-3.41c0-1.29-0.26-2.43-0.79-3.41
				c-0.53-0.98-1.25-1.74-2.17-2.28s-1.96-0.8-3.11-0.8C280.85,697.37,279.39,697.95,278.28,699.11z"/>
			<path class="st2" d="M315.71,696.52c1.14,0.67,2.03,1.63,2.68,2.89c0.65,1.26,0.97,2.75,0.97,4.45c0,1.69-0.32,3.16-0.97,4.42
				c-0.65,1.26-1.54,2.23-2.69,2.9c-1.15,0.68-2.46,1.01-3.93,1.01c-1.67,0-3.08-0.43-4.23-1.28c-1.15-0.85-1.95-1.98-2.38-3.39
				v4.47h-2.08v-22.03h2.08v10.24c0.44-1.41,1.23-2.54,2.38-3.39c1.15-0.85,2.56-1.28,4.23-1.28
				C313.26,695.52,314.57,695.85,315.71,696.52z M308.09,698.17c-0.92,0.54-1.64,1.3-2.16,2.28s-0.77,2.12-0.77,3.41
				c0,1.29,0.26,2.43,0.77,3.41s1.24,1.74,2.16,2.28c0.92,0.54,1.96,0.8,3.11,0.8c1.85,0,3.32-0.58,4.41-1.74
				c1.09-1.16,1.64-2.74,1.64-4.75c0-2-0.55-3.59-1.64-4.75c-1.09-1.16-2.56-1.74-4.41-1.74
				C310.05,697.37,309.01,697.64,308.09,698.17z"/>
			<path class="st2" d="M323.56,695.73l5.66,13.55l5.21-13.55h2.32l-9.56,23.94h-2.38l3.28-7.86l-6.85-16.08H323.56z"/>
			<path class="st2" d="M347.59,695.73l5.66,13.55l5.21-13.55h2.32l-9.56,23.94h-2.38l3.27-7.86l-6.85-16.08H347.59z"/>
			<path class="st2" d="M374.94,696.52c1.22,0.67,2.18,1.63,2.87,2.89c0.69,1.26,1.04,2.75,1.04,4.45c0,1.71-0.35,3.19-1.04,4.44
				c-0.7,1.25-1.65,2.21-2.87,2.89c-1.22,0.68-2.6,1.01-4.15,1.01s-2.94-0.34-4.17-1.01c-1.23-0.68-2.2-1.64-2.9-2.9
				c-0.71-1.26-1.06-2.73-1.06-4.42c0-1.71,0.35-3.19,1.06-4.45c0.7-1.26,1.67-2.22,2.9-2.89c1.23-0.66,2.62-1,4.17-1
				S373.72,695.85,374.94,696.52z M367.81,698.05c-0.91,0.48-1.65,1.21-2.2,2.19c-0.56,0.98-0.83,2.19-0.83,3.62
				c0,1.43,0.28,2.63,0.83,3.6c0.56,0.97,1.29,1.7,2.2,2.17c0.91,0.48,1.9,0.72,2.98,0.72c1.05,0,2.03-0.24,2.93-0.72
				c0.9-0.48,1.63-1.2,2.19-2.17c0.56-0.97,0.83-2.17,0.83-3.6c0-1.43-0.28-2.63-0.83-3.62c-0.56-0.98-1.29-1.71-2.19-2.19
				c-0.9-0.48-1.88-0.71-2.93-0.71C369.71,697.34,368.72,697.58,367.81,698.05z"/>
			<path class="st2" d="M396.63,695.73v16.26h-2.08v-4.02c-0.42,1.41-1.17,2.48-2.26,3.22c-1.09,0.73-2.34,1.1-3.75,1.1
				c-1.91,0-3.45-0.6-4.63-1.8c-1.18-1.2-1.77-2.96-1.77-5.28v-9.47h2.08v9.29c0,1.79,0.45,3.15,1.34,4.09
				c0.89,0.94,2.11,1.41,3.66,1.41c1.63,0,2.92-0.52,3.89-1.56c0.96-1.04,1.44-2.58,1.44-4.6v-8.64H396.63z"/>
			<path class="st2" d="M402.64,712.34c0,0.95-0.23,1.71-0.68,2.28c-0.46,0.57-1.14,0.85-2.05,0.85v-0.98c0.48,0,0.82-0.13,1.04-0.4
				c0.22-0.27,0.33-0.68,0.33-1.24v-0.24h-1.34v-2.29h2.41C402.54,711,402.64,711.67,402.64,712.34z"/>
			<path class="st2" d="M429.14,692.62c1.65,1.22,2.81,2.9,3.48,5.05h-2.2c-0.56-1.51-1.48-2.71-2.77-3.6
				c-1.29-0.89-2.89-1.34-4.79-1.34c-1.45,0-2.76,0.36-3.95,1.07c-1.18,0.71-2.11,1.74-2.78,3.07s-1.01,2.88-1.01,4.65
				s0.34,3.31,1.01,4.63c0.68,1.32,1.6,2.34,2.78,3.05c1.18,0.71,2.5,1.07,3.95,1.07c1.91,0,3.5-0.45,4.79-1.34
				c1.29-0.89,2.21-2.09,2.77-3.6h2.2c-0.68,2.14-1.84,3.83-3.48,5.05c-1.65,1.22-3.73,1.83-6.25,1.83c-1.92,0-3.64-0.46-5.15-1.37
				s-2.68-2.18-3.51-3.8c-0.83-1.62-1.25-3.46-1.25-5.52c0-2.08,0.42-3.94,1.25-5.57c0.83-1.63,2-2.89,3.51-3.8
				c1.51-0.9,3.23-1.35,5.15-1.35C425.41,690.79,427.5,691.4,429.14,692.62z"/>
			<path class="st2" d="M440.85,696.38c1.05-0.63,2.33-0.95,3.84-0.95v2.26H444c-1.57,0-2.87,0.42-3.9,1.27
				c-1.03,0.84-1.55,2.22-1.55,4.12v8.9h-2.11v-16.26h2.11v3.36C439.03,697.92,439.79,697.02,440.85,696.38z"/>
			<path class="st2" d="M458.52,696.8c1.16,0.85,1.96,1.99,2.4,3.39v-4.47h2.05v16.26h-2.05v-4.47c-0.44,1.41-1.24,2.54-2.4,3.39
				c-1.16,0.85-2.57,1.28-4.21,1.28c-1.47,0-2.78-0.34-3.95-1.01c-1.16-0.68-2.07-1.64-2.71-2.9c-0.65-1.26-0.97-2.73-0.97-4.42
				c0-1.71,0.32-3.19,0.97-4.45c0.64-1.26,1.54-2.22,2.69-2.89c1.15-0.66,2.47-1,3.96-1C455.95,695.52,457.36,695.95,458.52,696.8z
				 M450.45,699.11c-1.1,1.16-1.65,2.75-1.65,4.75c0,2.01,0.55,3.59,1.65,4.75c1.1,1.16,2.57,1.74,4.39,1.74
				c1.15,0,2.19-0.27,3.11-0.8c0.92-0.54,1.65-1.3,2.17-2.28s0.79-2.12,0.79-3.41c0-1.29-0.26-2.43-0.79-3.41s-1.25-1.74-2.17-2.28
				c-0.92-0.54-1.96-0.8-3.11-0.8C453.01,697.37,451.55,697.95,450.45,699.11z"/>
			<path class="st2" d="M471.17,692.23c-0.61,0.57-0.91,1.51-0.91,2.84v0.65h4.08v1.85h-4.08v14.41h-2.08v-14.41h-2.41v-1.85h2.41
				v-0.8c0-1.83,0.5-3.2,1.49-4.11c0.99-0.91,2.55-1.33,4.67-1.25v1.85C472.83,691.39,471.78,691.67,471.17,692.23z"/>
			<path class="st2" d="M484.85,710.14v1.85h-1.94c-1.57,0-2.74-0.37-3.51-1.12c-0.77-0.74-1.16-2-1.16-3.77v-9.56h-2.47v-1.82h2.47
				v-4.11h2.11v4.11h4.47v1.82h-4.47v9.59c0,1.15,0.21,1.94,0.63,2.37c0.42,0.43,1.15,0.64,2.2,0.64H484.85z"/>
			<path class="st2" d="M499.06,709.37c0.99-0.73,1.59-1.73,1.79-2.98h2.2c-0.3,1.73-1.12,3.13-2.47,4.2
				c-1.35,1.07-3.06,1.61-5.12,1.61c-1.55,0-2.92-0.33-4.12-1c-1.2-0.67-2.14-1.63-2.81-2.89c-0.68-1.26-1.01-2.74-1.01-4.45
				c0-1.71,0.34-3.19,1.01-4.45c0.67-1.26,1.61-2.22,2.81-2.89c1.2-0.66,2.58-1,4.12-1c1.59,0,2.96,0.33,4.12,1
				c1.16,0.67,2.04,1.55,2.65,2.66c0.61,1.11,0.91,2.32,0.91,3.63c0,0.56-0.04,1.06-0.12,1.52h-13.46c0.02,1.37,0.3,2.52,0.85,3.44
				c0.55,0.92,1.26,1.6,2.13,2.04c0.87,0.44,1.82,0.66,2.83,0.66C496.83,710.47,498.06,710.1,499.06,709.37z M492.57,697.87
				c-0.87,0.44-1.58,1.11-2.13,2.01c-0.55,0.9-0.84,2.03-0.88,3.38h11.49c0.08-1.33-0.14-2.45-0.66-3.36
				c-0.52-0.91-1.21-1.59-2.08-2.03c-0.87-0.44-1.83-0.65-2.86-0.65C494.4,697.22,493.44,697.44,492.57,697.87z"/>
			<path class="st2" d="M517.95,696.8c1.16,0.85,1.95,1.99,2.37,3.39v-10.24h2.08v22.03h-2.08v-4.47c-0.42,1.41-1.21,2.54-2.37,3.39
				c-1.16,0.85-2.57,1.28-4.21,1.28c-1.47,0-2.78-0.34-3.95-1.01c-1.16-0.68-2.07-1.64-2.71-2.9c-0.65-1.26-0.97-2.73-0.97-4.42
				c0-1.71,0.32-3.19,0.97-4.45c0.64-1.26,1.54-2.22,2.69-2.89c1.15-0.66,2.47-1,3.96-1C515.39,695.52,516.79,695.95,517.95,696.8z
				 M509.88,699.11c-1.1,1.16-1.65,2.75-1.65,4.75c0,2.01,0.55,3.59,1.65,4.75c1.1,1.16,2.57,1.74,4.39,1.74
				c1.15,0,2.19-0.27,3.11-0.8c0.92-0.54,1.65-1.3,2.17-2.28s0.79-2.12,0.79-3.41c0-1.29-0.26-2.43-0.79-3.41s-1.25-1.74-2.17-2.28
				c-0.92-0.54-1.96-0.8-3.11-0.8C512.45,697.37,510.98,697.95,509.88,699.11z"/>
			<path class="st2" d="M547.31,696.52c1.14,0.67,2.03,1.63,2.68,2.89c0.64,1.26,0.97,2.75,0.97,4.45c0,1.69-0.32,3.16-0.97,4.42
				c-0.65,1.26-1.54,2.23-2.69,2.9c-1.15,0.68-2.46,1.01-3.93,1.01c-1.67,0-3.08-0.43-4.23-1.28c-1.15-0.85-1.95-1.98-2.38-3.39
				v4.47h-2.08v-22.03h2.08v10.24c0.44-1.41,1.23-2.54,2.38-3.39c1.15-0.85,2.56-1.28,4.23-1.28
				C544.85,695.52,546.17,695.85,547.31,696.52z M539.69,698.17c-0.92,0.54-1.64,1.3-2.16,2.28c-0.52,0.98-0.77,2.12-0.77,3.41
				c0,1.29,0.26,2.43,0.77,3.41c0.52,0.98,1.24,1.74,2.16,2.28c0.92,0.54,1.96,0.8,3.11,0.8c1.85,0,3.31-0.58,4.41-1.74
				c1.09-1.16,1.64-2.74,1.64-4.75c0-2-0.55-3.59-1.64-4.75c-1.09-1.16-2.56-1.74-4.41-1.74
				C541.65,697.37,540.61,697.64,539.69,698.17z"/>
			<path class="st2" d="M555.16,695.73l5.66,13.55l5.21-13.55h2.32l-9.56,23.94h-2.38l3.27-7.86l-6.85-16.08H555.16z"/>
			<path class="st2" d="M592.76,695.73v16.26h-2.08v-4.02c-0.42,1.41-1.17,2.48-2.26,3.22s-2.34,1.1-3.75,1.1
				c-1.91,0-3.45-0.6-4.63-1.8c-1.18-1.2-1.77-2.96-1.77-5.28v-9.47h2.08v9.29c0,1.79,0.45,3.15,1.34,4.09
				c0.89,0.94,2.12,1.41,3.66,1.41c1.63,0,2.92-0.52,3.89-1.56c0.96-1.04,1.44-2.58,1.44-4.6v-8.64H592.76z"/>
			<path class="st2" d="M606.49,696.92c1.07,0.93,1.73,2.19,1.96,3.78h-1.99c-0.12-1.05-0.55-1.92-1.3-2.61
				c-0.74-0.68-1.74-1.03-2.99-1.03c-1.07,0-1.91,0.26-2.52,0.79c-0.61,0.53-0.91,1.23-0.91,2.1c0,0.65,0.19,1.18,0.58,1.58
				c0.39,0.4,0.87,0.7,1.44,0.91c0.57,0.21,1.35,0.42,2.32,0.64c1.19,0.28,2.15,0.56,2.87,0.85c0.72,0.29,1.35,0.74,1.86,1.35
				c0.52,0.62,0.77,1.45,0.77,2.5c0,1.29-0.48,2.35-1.44,3.17c-0.96,0.82-2.24,1.24-3.83,1.24c-1.87,0-3.39-0.46-4.58-1.38
				c-1.19-0.92-1.9-2.19-2.11-3.8h2.02c0.12,1.07,0.59,1.95,1.4,2.62c0.81,0.68,1.92,1.01,3.31,1.01c1.03,0,1.84-0.27,2.41-0.8
				c0.57-0.54,0.86-1.23,0.86-2.08c0-0.7-0.2-1.25-0.6-1.67c-0.4-0.42-0.89-0.73-1.47-0.94c-0.59-0.21-1.38-0.43-2.4-0.67
				c-1.17-0.28-2.11-0.56-2.81-0.83s-1.31-0.71-1.8-1.29c-0.5-0.59-0.74-1.39-0.74-2.4c0-1.33,0.49-2.4,1.46-3.22
				c0.97-0.81,2.29-1.22,3.96-1.22C604,695.52,605.42,695.99,606.49,696.92z"/>
			<path class="st2" d="M613.81,709.31v2.68h-2.77v-2.68H613.81z"/>
		</g>
	</g>
	<g>
		<g>
			<polygon class="st2" points="438.84,82.81 375.04,361.24 502.65,361.24 502.65,82.81 			"/>
			<polygon class="st2" points="353.77,405.71 417.58,127.28 289.96,127.28 289.96,405.71 			"/>
		</g>
		<path d="M329.63,278.22l5.88-25.93l69.93-46.1l43.21,71.75l-5.88,25.93c-2.56-4.37-17.87-29.51-50.2-37.2
			C359.31,258.76,333.73,275.45,329.63,278.22z"/>
	</g>
</g>
</svg>
